<?xml version="1.0" encoding="UTF-8" standalone="no"?>
<!-- Created with Inkscape (http://www.inkscape.org/) -->

<svg
   xmlns:dc="http://purl.org/dc/elements/1.1/"
   xmlns:cc="http://creativecommons.org/ns#"
   xmlns:rdf="http://www.w3.org/1999/02/22-rdf-syntax-ns#"
   xmlns:svg="http://www.w3.org/2000/svg"
   xmlns="http://www.w3.org/2000/svg"
   xmlns:sodipodi="http://sodipodi.sourceforge.net/DTD/sodipodi-0.dtd"
   xmlns:inkscape="http://www.inkscape.org/namespaces/inkscape"
   width="660"
   height="220"
   viewBox="0 0 659.99999 220"
   id="svg2"
   version="1.1"
   inkscape:version="0.91 r13725"
   sodipodi:docname="edwina-eyes-star.svg"
   inkscape:export-filename="/Users/dave/projects/edwina-star/edwina-eyes-star.optimized-spriteset.svg"
   inkscape:export-xdpi="90"
   inkscape:export-ydpi="90">
  <defs
     id="defs4">
    <filter
       inkscape:collect="always"
       style="color-interpolation-filters:sRGB"
       id="filter4284"
       x="-0.083999991"
       width="1.168"
       y="-0.084000006"
       height="1.168">
      <feGaussianBlur
         inkscape:collect="always"
         stdDeviation="5.2351792"
         id="feGaussianBlur4286" />
    </filter>
    <filter
       inkscape:collect="always"
       style="color-interpolation-filters:sRGB"
       id="filter4292"
       x="-0.059999995"
       width="1.12"
       y="-0.060000002"
       height="1.12">
      <feGaussianBlur
         inkscape:collect="always"
         stdDeviation="1.9999999"
         id="feGaussianBlur4294" />
    </filter>
  </defs>
  <sodipodi:namedview
     id="base"
     pagecolor="#ffffff"
     bordercolor="#666666"
     borderopacity="1.0"
     inkscape:pageopacity="0.0"
     inkscape:pageshadow="2"
     inkscape:zoom="1.2"
     inkscape:cx="371.72726"
     inkscape:cy="20.549267"
     inkscape:document-units="px"
     inkscape:current-layer="layer1"
     showgrid="false"
     guidetolerance="20"
     inkscape:window-width="1402"
     inkscape:window-height="855"
     inkscape:window-x="0"
     inkscape:window-y="0"
     inkscape:window-maximized="1"
     fit-margin-top="0"
     fit-margin-left="0"
     fit-margin-right="0"
     fit-margin-bottom="0"
     units="px" />
  <metadata
     id="metadata7">
    <rdf:RDF>
      <cc:Work
         rdf:about="">
        <dc:format>image/svg+xml</dc:format>
        <dc:type
           rdf:resource="http://purl.org/dc/dcmitype/StillImage" />
        <dc:title></dc:title>
      </cc:Work>
    </rdf:RDF>
  </metadata>
  <g
     inkscape:label="Layer 1"
     inkscape:groupmode="layer"
     id="layer1"
     transform="translate(-282.11094,-453.27296)">
    <g
       id="g4458">
      <path
         sodipodi:nodetypes="ccccc"
         inkscape:connector-curvature="0"
         id="rect4194"
         d="m 392.11685,453.58429 c 13.90308,86.34769 23.11687,95.97453 109.68764,109.68947 -84.6943,10.0325 -95.2696,19.66432 -109.68763,109.68946 -7.8457,-88.87063 -18.2388,-94.62745 -109.68763,-109.68947 91.02566,-11.53571 98.22021,-22.51638 109.68762,-109.68946 z"
         style="color:#000000;clip-rule:nonzero;display:inline;overflow:visible;visibility:visible;opacity:1;isolation:auto;mix-blend-mode:normal;color-interpolation:sRGB;color-interpolation-filters:linearRGB;solid-color:#000000;solid-opacity:1;fill:#a1f55c;fill-opacity:1;fill-rule:evenodd;stroke:#75e914;stroke-width:3.91707325;stroke-linecap:butt;stroke-linejoin:miter;stroke-miterlimit:4;stroke-dasharray:none;stroke-dashoffset:0;stroke-opacity:1;color-rendering:auto;image-rendering:auto;shape-rendering:auto;text-rendering:auto;enable-background:accumulate" />
      <path
         transform="matrix(0.97926016,0,0,0.97927652,88.617963,32.106575)"
         style="color:#000000;clip-rule:nonzero;display:inline;overflow:visible;visibility:visible;opacity:1;isolation:auto;mix-blend-mode:normal;color-interpolation:sRGB;color-interpolation-filters:linearRGB;solid-color:#000000;solid-opacity:1;fill:#dafa3c;fill-opacity:1;fill-rule:evenodd;stroke:none;stroke-width:2.67075419;stroke-linecap:butt;stroke-linejoin:miter;stroke-miterlimit:4;stroke-dasharray:none;stroke-dashoffset:0;stroke-opacity:1;filter:url(#filter4284);color-rendering:auto;image-rendering:auto;shape-rendering:auto;text-rendering:auto;enable-background:accumulate"
         d="m 309.92472,467.61921 c 9.47952,58.87343 15.76176,65.43718 74.78828,74.78827 -57.74709,6.84035 -64.95763,13.4075 -74.78828,74.78827 -5.34943,-60.5936 -12.43575,-64.51871 -74.78828,-74.78827 62.06399,-7.86526 66.96946,-15.35208 74.78828,-74.78827 z"
         id="path4254"
         inkscape:connector-curvature="0"
         sodipodi:nodetypes="ccccc" />
      <path
         transform="matrix(0.97926016,0,0,0.97927652,5.8509392,13.952559)"
         sodipodi:nodetypes="ccccc"
         inkscape:connector-curvature="0"
         id="path4256"
         d="m 394.44064,520.94513 c 5.07006,31.48806 8.43007,34.99863 40,40 -30.88564,3.65851 -34.74215,7.17091 -40,39.99999 -2.86111,-32.40807 -6.65118,-34.50739 -40,-39.99999 33.1945,-4.20669 35.81816,-8.21096 40,-40 z"
         style="color:#000000;clip-rule:nonzero;display:inline;overflow:visible;visibility:visible;opacity:1;isolation:auto;mix-blend-mode:normal;color-interpolation:sRGB;color-interpolation-filters:linearRGB;solid-color:#000000;solid-opacity:1;fill:#d7fdb7;fill-opacity:1;fill-rule:evenodd;stroke:none;stroke-width:2.67075419;stroke-linecap:butt;stroke-linejoin:miter;stroke-miterlimit:4;stroke-dasharray:none;stroke-dashoffset:0;stroke-opacity:1;filter:url(#filter4292);color-rendering:auto;image-rendering:auto;shape-rendering:auto;text-rendering:auto;enable-background:accumulate" />
      <path
         style="color:#000000;clip-rule:nonzero;display:inline;overflow:visible;visibility:visible;opacity:1;isolation:auto;mix-blend-mode:normal;color-interpolation:sRGB;color-interpolation-filters:linearRGB;solid-color:#000000;solid-opacity:1;fill:#dafa3c;fill-opacity:1;fill-rule:evenodd;stroke:none;stroke-width:2.67075419;stroke-linecap:butt;stroke-linejoin:miter;stroke-miterlimit:4;stroke-dasharray:none;stroke-dashoffset:0;stroke-opacity:1;color-rendering:auto;image-rendering:auto;shape-rendering:auto;text-rendering:auto;enable-background:accumulate"
         d="m 338.55448,495.74141 c 1.90126,11.80802 3.16128,13.12449 15,14.99999 -11.58212,1.37195 -13.02831,2.6891 -15,15.00001 -1.07292,-12.15303 -2.4942,-12.94027 -15,-15.00001 12.44793,-1.5775 13.4318,-3.0791 15,-14.99999 z"
         id="path4351"
         inkscape:connector-curvature="0"
         sodipodi:nodetypes="ccccc" />
      <path
         sodipodi:nodetypes="ccccc"
         inkscape:connector-curvature="0"
         id="path4353"
         d="m 454.59485,489.7839 c 1.58439,9.84002 2.6344,10.93708 12.5,12.5 -9.65177,1.14329 -10.85692,2.24091 -12.5,12.5 -0.8941,-10.12752 -2.0785,-10.78356 -12.5,-12.5 10.37327,-1.31459 11.19317,-2.56592 12.5,-12.5 z"
         style="color:#000000;clip-rule:nonzero;display:inline;overflow:visible;visibility:visible;opacity:1;isolation:auto;mix-blend-mode:normal;color-interpolation:sRGB;color-interpolation-filters:linearRGB;solid-color:#000000;solid-opacity:1;fill:#75e914;fill-opacity:1;fill-rule:evenodd;stroke:none;stroke-width:2.67075419;stroke-linecap:butt;stroke-linejoin:miter;stroke-miterlimit:4;stroke-dasharray:none;stroke-dashoffset:0;stroke-opacity:1;color-rendering:auto;image-rendering:auto;shape-rendering:auto;text-rendering:auto;enable-background:accumulate" />
      <path
         style="color:#000000;clip-rule:nonzero;display:inline;overflow:visible;visibility:visible;opacity:1;isolation:auto;mix-blend-mode:normal;color-interpolation:sRGB;color-interpolation-filters:linearRGB;solid-color:#000000;solid-opacity:1;fill:#75e914;fill-opacity:1;fill-rule:evenodd;stroke:none;stroke-width:2.67075419;stroke-linecap:butt;stroke-linejoin:miter;stroke-miterlimit:4;stroke-dasharray:none;stroke-dashoffset:0;stroke-opacity:1;color-rendering:auto;image-rendering:auto;shape-rendering:auto;text-rendering:auto;enable-background:accumulate"
         d="m 432.16243,612.84551 c 0.95065,5.90401 1.58065,6.56224 7.50001,7.5 -5.79106,0.68598 -6.51416,1.34454 -7.50001,7.5 -0.53646,-6.07651 -1.24708,-6.47013 -7.49999,-7.5 6.22396,-0.78876 6.7159,-1.53955 7.49999,-7.5 z"
         id="path4355"
         inkscape:connector-curvature="0"
         sodipodi:nodetypes="ccccc" />
      <path
         style="color:#000000;clip-rule:nonzero;display:inline;overflow:visible;visibility:visible;opacity:1;isolation:auto;mix-blend-mode:normal;color-interpolation:sRGB;color-interpolation-filters:linearRGB;solid-color:#000000;solid-opacity:1;fill:#75e914;fill-opacity:1;fill-rule:evenodd;stroke:none;stroke-width:2.67075419;stroke-linecap:butt;stroke-linejoin:miter;stroke-miterlimit:4;stroke-dasharray:none;stroke-dashoffset:0;stroke-opacity:1;color-rendering:auto;image-rendering:auto;shape-rendering:auto;text-rendering:auto;enable-background:accumulate"
         d="m 332.85497,616.42162 c 1.58439,9.84002 2.6344,10.93708 12.5,12.5 -9.65177,1.14329 -10.85692,2.24091 -12.5,12.5 -0.8941,-10.12752 -2.0785,-10.78356 -12.5,-12.5 10.37327,-1.31459 11.19317,-2.56592 12.5,-12.5 z"
         id="path4452"
         inkscape:connector-curvature="0"
         sodipodi:nodetypes="ccccc" />
    </g>
    <g
       id="g4477">
      <path
         sodipodi:nodetypes="ccccc"
         inkscape:connector-curvature="0"
         id="path4395"
         d="m 832.11685,453.58431 c 13.90308,86.34769 23.11687,95.97453 109.68764,109.68947 -84.6943,10.0325 -95.2696,19.66432 -109.68763,109.68946 -7.8457,-88.87063 -18.2388,-94.62745 -109.68763,-109.68947 91.02566,-11.53571 98.22021,-22.51638 109.68762,-109.68946 z"
         style="color:#000000;clip-rule:nonzero;display:inline;overflow:visible;visibility:visible;opacity:1;isolation:auto;mix-blend-mode:normal;color-interpolation:sRGB;color-interpolation-filters:linearRGB;solid-color:#000000;solid-opacity:1;fill:#a1f55c;fill-opacity:1;fill-rule:evenodd;stroke:#75e914;stroke-width:3.91707325;stroke-linecap:butt;stroke-linejoin:miter;stroke-miterlimit:4;stroke-dasharray:none;stroke-dashoffset:0;stroke-opacity:1;color-rendering:auto;image-rendering:auto;shape-rendering:auto;text-rendering:auto;enable-background:accumulate" />
      <path
         transform="matrix(0.97926016,0,0,0.97927652,528.61796,32.106591)"
         style="color:#000000;clip-rule:nonzero;display:inline;overflow:visible;visibility:visible;opacity:1;isolation:auto;mix-blend-mode:normal;color-interpolation:sRGB;color-interpolation-filters:linearRGB;solid-color:#000000;solid-opacity:1;fill:#dafa3c;fill-opacity:1;fill-rule:evenodd;stroke:none;stroke-width:2.67075419;stroke-linecap:butt;stroke-linejoin:miter;stroke-miterlimit:4;stroke-dasharray:none;stroke-dashoffset:0;stroke-opacity:1;filter:url(#filter4284);color-rendering:auto;image-rendering:auto;shape-rendering:auto;text-rendering:auto;enable-background:accumulate"
         d="m 309.92472,467.61921 c 9.47952,58.87343 15.76176,65.43718 74.78828,74.78827 -57.74709,6.84035 -64.95763,13.4075 -74.78828,74.78827 -5.34943,-60.5936 -12.43575,-64.51871 -74.78828,-74.78827 62.06399,-7.86526 66.96946,-15.35208 74.78828,-74.78827 z"
         id="path4397"
         inkscape:connector-curvature="0"
         sodipodi:nodetypes="ccccc" />
      <path
         transform="matrix(0.97926016,0,0,0.97927652,445.85094,13.952575)"
         sodipodi:nodetypes="ccccc"
         inkscape:connector-curvature="0"
         id="path4399"
         d="m 394.44064,520.94513 c 5.07006,31.48806 8.43007,34.99863 40,40 -30.88564,3.65851 -34.74215,7.17091 -40,39.99999 -2.86111,-32.40807 -6.65118,-34.50739 -40,-39.99999 33.1945,-4.20669 35.81816,-8.21096 40,-40 z"
         style="color:#000000;clip-rule:nonzero;display:inline;overflow:visible;visibility:visible;opacity:1;isolation:auto;mix-blend-mode:normal;color-interpolation:sRGB;color-interpolation-filters:linearRGB;solid-color:#000000;solid-opacity:1;fill:#d7fdb7;fill-opacity:1;fill-rule:evenodd;stroke:none;stroke-width:2.67075419;stroke-linecap:butt;stroke-linejoin:miter;stroke-miterlimit:4;stroke-dasharray:none;stroke-dashoffset:0;stroke-opacity:1;filter:url(#filter4292);color-rendering:auto;image-rendering:auto;shape-rendering:auto;text-rendering:auto;enable-background:accumulate" />
      <path
         style="color:#000000;clip-rule:nonzero;display:inline;overflow:visible;visibility:visible;opacity:1;isolation:auto;mix-blend-mode:normal;color-interpolation:sRGB;color-interpolation-filters:linearRGB;solid-color:#000000;solid-opacity:1;fill:#dafa3c;fill-opacity:1;fill-rule:evenodd;stroke:none;stroke-width:2.67075419;stroke-linecap:butt;stroke-linejoin:miter;stroke-miterlimit:4;stroke-dasharray:none;stroke-dashoffset:0;stroke-opacity:1;color-rendering:auto;image-rendering:auto;shape-rendering:auto;text-rendering:auto;enable-background:accumulate"
         d="m 891.06414,604.8185 c 1.90126,11.80802 3.16128,13.12449 15,14.99999 -11.58212,1.37195 -13.02831,2.6891 -15,15.00001 -1.07292,-12.15303 -2.4942,-12.94027 -15,-15.00001 12.44793,-1.5775 13.4318,-3.0791 15,-14.99999 z"
         id="path4401"
         inkscape:connector-curvature="0"
         sodipodi:nodetypes="ccccc" />
      <path
         sodipodi:nodetypes="ccccc"
         inkscape:connector-curvature="0"
         id="path4403"
         d="m 780.35497,613.92162 c 1.58439,9.84002 2.6344,10.93708 12.5,12.5 -9.65177,1.14329 -10.85692,2.24091 -12.5,12.5 -0.8941,-10.12752 -2.0785,-10.78356 -12.5,-12.5 10.37327,-1.31459 11.19317,-2.56592 12.5,-12.5 z"
         style="color:#000000;clip-rule:nonzero;display:inline;overflow:visible;visibility:visible;opacity:1;isolation:auto;mix-blend-mode:normal;color-interpolation:sRGB;color-interpolation-filters:linearRGB;solid-color:#000000;solid-opacity:1;fill:#75e914;fill-opacity:1;fill-rule:evenodd;stroke:none;stroke-width:2.67075419;stroke-linecap:butt;stroke-linejoin:miter;stroke-miterlimit:4;stroke-dasharray:none;stroke-dashoffset:0;stroke-opacity:1;color-rendering:auto;image-rendering:auto;shape-rendering:auto;text-rendering:auto;enable-background:accumulate" />
      <path
         style="color:#000000;clip-rule:nonzero;display:inline;overflow:visible;visibility:visible;opacity:1;isolation:auto;mix-blend-mode:normal;color-interpolation:sRGB;color-interpolation-filters:linearRGB;solid-color:#000000;solid-opacity:1;fill:#75e914;fill-opacity:1;fill-rule:evenodd;stroke:none;stroke-width:2.67075419;stroke-linecap:butt;stroke-linejoin:miter;stroke-miterlimit:4;stroke-dasharray:none;stroke-dashoffset:0;stroke-opacity:1;color-rendering:auto;image-rendering:auto;shape-rendering:auto;text-rendering:auto;enable-background:accumulate"
         d="m 784.73833,505.39651 c 0.95065,5.90401 1.58065,6.56224 7.50001,7.5 -5.79106,0.68598 -6.51416,1.34454 -7.50001,7.5 -0.53646,-6.07651 -1.24708,-6.47013 -7.49999,-7.5 6.22396,-0.78876 6.7159,-1.53955 7.49999,-7.5 z"
         id="path4405"
         inkscape:connector-curvature="0"
         sodipodi:nodetypes="ccccc" />
      <path
         sodipodi:nodetypes="ccccc"
         inkscape:connector-curvature="0"
         id="path4454"
         d="m 890.23081,487.3185 c 1.90126,11.80802 3.16128,13.12449 15,14.99999 -11.58212,1.37195 -13.02831,2.6891 -15,15.00001 -1.07292,-12.15303 -2.4942,-12.94027 -15,-15.00001 12.44793,-1.5775 13.4318,-3.0791 15,-14.99999 z"
         style="color:#000000;clip-rule:nonzero;display:inline;overflow:visible;visibility:visible;opacity:1;isolation:auto;mix-blend-mode:normal;color-interpolation:sRGB;color-interpolation-filters:linearRGB;solid-color:#000000;solid-opacity:1;fill:#dafa3c;fill-opacity:1;fill-rule:evenodd;stroke:none;stroke-width:2.67075419;stroke-linecap:butt;stroke-linejoin:miter;stroke-miterlimit:4;stroke-dasharray:none;stroke-dashoffset:0;stroke-opacity:1;color-rendering:auto;image-rendering:auto;shape-rendering:auto;text-rendering:auto;enable-background:accumulate" />
    </g>
    <g
       id="g4467">
      <g
         id="g4385">
        <path
           sodipodi:nodetypes="ccccc"
           inkscape:connector-curvature="0"
           id="path4367"
           d="m 612.11685,453.58431 c 13.90308,86.34769 23.11687,95.97453 109.68764,109.68947 -84.6943,10.0325 -95.2696,19.66432 -109.68763,109.68946 -7.8457,-88.87063 -18.2388,-94.62745 -109.68763,-109.68947 91.02566,-11.53571 98.22021,-22.51638 109.68762,-109.68946 z"
           style="color:#000000;clip-rule:nonzero;display:inline;overflow:visible;visibility:visible;opacity:1;isolation:auto;mix-blend-mode:normal;color-interpolation:sRGB;color-interpolation-filters:linearRGB;solid-color:#000000;solid-opacity:1;fill:#a1f55c;fill-opacity:1;fill-rule:evenodd;stroke:#75e914;stroke-width:3.91707325;stroke-linecap:butt;stroke-linejoin:miter;stroke-miterlimit:4;stroke-dasharray:none;stroke-dashoffset:0;stroke-opacity:1;color-rendering:auto;image-rendering:auto;shape-rendering:auto;text-rendering:auto;enable-background:accumulate" />
        <path
           transform="matrix(0.97926016,0,0,0.97927652,308.61796,32.106591)"
           style="color:#000000;clip-rule:nonzero;display:inline;overflow:visible;visibility:visible;opacity:1;isolation:auto;mix-blend-mode:normal;color-interpolation:sRGB;color-interpolation-filters:linearRGB;solid-color:#000000;solid-opacity:1;fill:#dafa3c;fill-opacity:1;fill-rule:evenodd;stroke:none;stroke-width:2.67075419;stroke-linecap:butt;stroke-linejoin:miter;stroke-miterlimit:4;stroke-dasharray:none;stroke-dashoffset:0;stroke-opacity:1;filter:url(#filter4284);color-rendering:auto;image-rendering:auto;shape-rendering:auto;text-rendering:auto;enable-background:accumulate"
           d="m 309.92472,467.61921 c 9.47952,58.87343 15.76176,65.43718 74.78828,74.78827 -57.74709,6.84035 -64.95763,13.4075 -74.78828,74.78827 -5.34943,-60.5936 -12.43575,-64.51871 -74.78828,-74.78827 62.06399,-7.86526 66.96946,-15.35208 74.78828,-74.78827 z"
           id="path4369"
           inkscape:connector-curvature="0"
           sodipodi:nodetypes="ccccc" />
        <path
           transform="matrix(0.97926016,0,0,0.97927652,225.85094,13.952575)"
           sodipodi:nodetypes="ccccc"
           inkscape:connector-curvature="0"
           id="path4371"
           d="m 394.44064,520.94513 c 5.07006,31.48806 8.43007,34.99863 40,40 -30.88564,3.65851 -34.74215,7.17091 -40,39.99999 -2.86111,-32.40807 -6.65118,-34.50739 -40,-39.99999 33.1945,-4.20669 35.81816,-8.21096 40,-40 z"
           style="color:#000000;clip-rule:nonzero;display:inline;overflow:visible;visibility:visible;opacity:1;isolation:auto;mix-blend-mode:normal;color-interpolation:sRGB;color-interpolation-filters:linearRGB;solid-color:#000000;solid-opacity:1;fill:#d7fdb7;fill-opacity:1;fill-rule:evenodd;stroke:none;stroke-width:2.67075419;stroke-linecap:butt;stroke-linejoin:miter;stroke-miterlimit:4;stroke-dasharray:none;stroke-dashoffset:0;stroke-opacity:1;filter:url(#filter4292);color-rendering:auto;image-rendering:auto;shape-rendering:auto;text-rendering:auto;enable-background:accumulate" />
        <path
           style="color:#000000;clip-rule:nonzero;display:inline;overflow:visible;visibility:visible;opacity:1;isolation:auto;mix-blend-mode:normal;color-interpolation:sRGB;color-interpolation-filters:linearRGB;solid-color:#000000;solid-opacity:1;fill:#dafa3c;fill-opacity:1;fill-rule:evenodd;stroke:none;stroke-width:2.67075419;stroke-linecap:butt;stroke-linejoin:miter;stroke-miterlimit:4;stroke-dasharray:none;stroke-dashoffset:0;stroke-opacity:1;color-rendering:auto;image-rendering:auto;shape-rendering:auto;text-rendering:auto;enable-background:accumulate"
           d="m 556.06414,604.8185 c 1.90126,11.80802 3.16128,13.12449 15,14.99999 -11.58212,1.37195 -13.02831,2.6891 -15,15.00001 -1.07292,-12.15303 -2.4942,-12.94027 -15,-15.00001 12.44793,-1.5775 13.4318,-3.0791 15,-14.99999 z"
           id="path4373"
           inkscape:connector-curvature="0"
           sodipodi:nodetypes="ccccc" />
        <path
           sodipodi:nodetypes="ccccc"
           inkscape:connector-curvature="0"
           id="path4375"
           d="m 564.52164,497.25495 c 1.58439,9.84002 2.6344,10.93708 12.5,12.5 -9.65177,1.14329 -10.85692,2.24091 -12.5,12.5 -0.8941,-10.12752 -2.0785,-10.78356 -12.5,-12.5 10.37327,-1.31459 11.19317,-2.56592 12.5,-12.5 z"
           style="color:#000000;clip-rule:nonzero;display:inline;overflow:visible;visibility:visible;opacity:1;isolation:auto;mix-blend-mode:normal;color-interpolation:sRGB;color-interpolation-filters:linearRGB;solid-color:#000000;solid-opacity:1;fill:#75e914;fill-opacity:1;fill-rule:evenodd;stroke:none;stroke-width:2.67075419;stroke-linecap:butt;stroke-linejoin:miter;stroke-miterlimit:4;stroke-dasharray:none;stroke-dashoffset:0;stroke-opacity:1;color-rendering:auto;image-rendering:auto;shape-rendering:auto;text-rendering:auto;enable-background:accumulate" />
        <path
           style="color:#000000;clip-rule:nonzero;display:inline;overflow:visible;visibility:visible;opacity:1;isolation:auto;mix-blend-mode:normal;color-interpolation:sRGB;color-interpolation-filters:linearRGB;solid-color:#000000;solid-opacity:1;fill:#75e914;fill-opacity:1;fill-rule:evenodd;stroke:none;stroke-width:2.67075419;stroke-linecap:butt;stroke-linejoin:miter;stroke-miterlimit:4;stroke-dasharray:none;stroke-dashoffset:0;stroke-opacity:1;color-rendering:auto;image-rendering:auto;shape-rendering:auto;text-rendering:auto;enable-background:accumulate"
           d="m 675.57166,513.72984 c 0.95065,5.90401 1.58065,6.56224 7.50001,7.5 -5.79106,0.68598 -6.51416,1.34454 -7.50001,7.5 -0.53646,-6.07651 -1.24708,-6.47013 -7.49999,-7.5 6.22396,-0.78876 6.7159,-1.53955 7.49999,-7.5 z"
           id="path4377"
           inkscape:connector-curvature="0"
           sodipodi:nodetypes="ccccc" />
      </g>
      <path
         style="color:#000000;clip-rule:nonzero;display:inline;overflow:visible;visibility:visible;opacity:1;isolation:auto;mix-blend-mode:normal;color-interpolation:sRGB;color-interpolation-filters:linearRGB;solid-color:#000000;solid-opacity:1;fill:#dafa3c;fill-opacity:1;fill-rule:evenodd;stroke:none;stroke-width:2.67075419;stroke-linecap:butt;stroke-linejoin:miter;stroke-miterlimit:4;stroke-dasharray:none;stroke-dashoffset:0;stroke-opacity:1;color-rendering:auto;image-rendering:auto;shape-rendering:auto;text-rendering:auto;enable-background:accumulate"
         d="m 671.89748,606.48517 c 1.90126,11.80802 3.16128,13.12449 15,14.99999 -11.58212,1.37195 -13.02831,2.6891 -15,15.00001 -1.07292,-12.15303 -2.4942,-12.94027 -15,-15.00001 12.44793,-1.5775 13.4318,-3.0791 15,-14.99999 z"
         id="path4456"
         inkscape:connector-curvature="0"
         sodipodi:nodetypes="ccccc" />
    </g>
  </g>
</svg>
